<?xml version="1.0" ?>
<svg xmlns="http://www.w3.org/2000/svg" id="luchador7508" viewBox="0 0 24 24">
	<style>#luchador7508 .lucha-base { fill: #1c1d2f; } #luchador7508 .lucha-alt { fill: #e0369f; } #luchador7508 .lucha-eyes { fill: #7fa53b; } #luchador7508 .lucha-skin { fill: #3a1b09; } #luchador7508 .lucha-breathe { animation: 0.5s lucha-breathe infinite alternate ease-in-out; } @keyframes lucha-breathe { from { transform: translateY(0px); } to { transform: translateY(1%); } }</style>
	<g class="lucha-breathe">
		<path class="lucha-skin" d="M22 12v-1h-1v-1h-1V9h-1V5h-1V3h-1V2h-1V1h-1V0H9v1H8v1H7v1H6v2H5v4H4v1H3v1H2v1H1v8h4v-1h1v-2H5v-3h1v1h1v1h1v2h8v-2h1v-1h1v-1h1v3h-1v2h1v1h4v-8z"/>
		<path class="lucha-base" d="M16 9H7v3h1-1v4h1v1h8v-1h1v-4h-1 1V9z"/>
		<path fill="#000" opacity=".15" d="M16 9H7v7h1v1h8v-1h1V9z"/>
		<path class="lucha-base" d="M5 16H1v3h4v-1h1v-1H5zM22 16h-3v1h-1v1h1v1h4v-3z"/>
		<path class="lucha-alt" d="M3 16H1v1h4v-1H4zM22 16h-3v1h4v-1z"/>
		<path class="lucha-base" d="M18 5V3h-1V2h-1V1h-1V0H9v1H8v1H7v1H6v2H5v5h1v2h1v1h1v1h1v1h6v-1h1v-1h1v-1h1v-2h1V5z"/>
		<g class="lucha-alt"/>
		<path fill="#FFF" d="M9 6H6v3h4V6zM17 6h-3v3h4V6z"/>
		<path class="lucha-eyes" d="M16 6h-2v3h3V6zM8 6H7v3h3V6H9z"/>
		<path fill="#FFF" d="M7 6h1v1H7zM16 6h1v1h-1z" opacity=".4"/>
		<path fill="#000" d="M15 7h1v1h-1zM8 7h1v1H8z"/>
		<path class="lucha-skin" d="M14 10H9v3h6v-3z"/>
		<path fill="#000" opacity=".9" d="M13 11h-3v1h4v-1z"/>
	</g>
	<path class="lucha-skin" d="M16 23v-6H8v6H7v1h4v-4h2v4h4v-1z"/>
	<path class="lucha-base" d="M15 17H8v1h1v1h2v1h2v-1h2v-1h1v-1z"/>
	<path class="lucha-base" d="M15 17H8v3h8v-3z"/>
	<path class="lucha-alt" d="M15 18v1h-2v4h3v-5zM9 19v-1H8v5h3v-4h-1z"/>
	<path class="lucha-base" d="M9 21H8v2H7v1h4v-3h-1zM16 23v-2h-3v3h4v-1z"/>
	<path class="lucha-alt" d="M9 22H8v1H7v1h4v-2h-1zM16 23v-1h-3v2h4v-1z"/>
</svg>
